<svg {{ $attributes }} xmlns="http://www.w3.org/2000/svg" width="256.3" height="75" viewBox="0 0 256.3 75">
  <g id="logo" transform="translate(0.5 0.5)">
    <path id="Union_40" data-name="Union 40" d="M133.442,74H8.259A8.292,8.292,0,0,1,0,65.684V10.394H10.889L32.125,45.478V8.316A8.291,8.291,0,0,1,40.385,0h62.083L127.25,8.316H45.043a2.074,2.074,0,0,0-2.065,2.079V63.6H32.087l-21.2-35.009V63.6a2.076,2.076,0,0,0,2.065,2.081H244.978a2.072,2.072,0,0,0,2.061-2.081V10.394a2.07,2.07,0,0,0-2.061-2.079H127.25L102.469,0h144.57A8.291,8.291,0,0,1,255.3,8.316V65.684A8.292,8.292,0,0,1,247.039,74Zm77.523-10.4V10.394h10.889V54.8h23.125V63.6Zm-37.494,0V10.394h35.358v8.882H184.359V31.955h20.908v8.589H184.359V54.8h24.536V63.6Zm-15.022,0L144.869,42.262l-5.663,6.14V63.6H128.319V10.394h10.888V34.515L144,27.9l13.466-17.506h13.4L152.1,34.04,171.406,63.6Zm-60.618,0V44.311L80.48,10.394H92.422l10.926,23.971,11-23.971h11.906L108.9,44.311V63.6Zm-14.82,0L79.345,52.641H60.252L56.621,63.6H45.043L64.719,10.394H74.808L94.59,63.6ZM63.192,43.762H76.405l-6.641-19.92Z" fill="#47350A" stroke="rgba(0,0,0,0)" stroke-miterlimit="10" stroke-width="1"/>
  </g>
</svg>
